<?xml version="1.0" encoding="utf-8"?>
<svg xmlns="http://www.w3.org/2000/svg" width="200" height="200" class="segno"><g transform="scale(8)"><path fill="#fff" d="M0 0h25v25h-25z"/><path class="qrline" stroke="#150f24" d="M2 2.5h7m2 0h3m2 0h7m-21 1h1m5 0h1m1 0h1m1 0h1m1 0h1m1 0h1m5 0h1m-21 1h1m1 0h3m1 0h1m2 0h1m1 0h1m2 0h1m1 0h3m1 0h1m-21 1h1m1 0h3m1 0h1m1 0h2m4 0h1m1 0h3m1 0h1m-21 1h1m1 0h3m1 0h1m2 0h1m1 0h1m2 0h1m1 0h3m1 0h1m-21 1h1m5 0h1m1 0h2m2 0h1m1 0h1m5 0h1m-21 1h7m1 0h1m1 0h1m1 0h1m1 0h7m-12 1h1m1 0h1m-12 1h5m1 0h4m1 0h1m1 0h1m1 0h1m1 0h1m1 0h1m-20 1h1m1 0h2m3 0h2m1 0h1m2 0h3m-16 1h3m2 0h2m2 0h5m3 0h3m-19 1h2m5 0h1m4 0h1m1 0h6m-21 1h2m1 0h4m1 0h2m2 0h1m1 0h3m1 0h2m-12 1h2m1 0h1m4 0h4m-20 1h7m1 0h1m2 0h3m1 0h1m3 0h1m-20 1h1m5 0h1m3 0h1m1 0h2m2 0h3m-19 1h1m1 0h3m1 0h1m1 0h2m1 0h2m1 0h2m2 0h1m-19 1h1m1 0h3m1 0h1m1 0h2m1 0h1m1 0h1m5 0h1m-20 1h1m1 0h3m1 0h1m1 0h1m1 0h4m3 0h2m-19 1h1m5 0h1m1 0h4m1 0h1m1 0h2m1 0h1m-19 1h7m1 0h1m1 0h1m1 0h6m1 0h1"/></g></svg>
